<?xml version="1.0" encoding="UTF-8" standalone="no"?>
<svg
   xmlns:dc="http://purl.org/dc/elements/1.1/"
   xmlns:cc="http://creativecommons.org/ns#"
   xmlns:rdf="http://www.w3.org/1999/02/22-rdf-syntax-ns#"
   xmlns:svg="http://www.w3.org/2000/svg"
   xmlns="http://www.w3.org/2000/svg"
   viewBox="0 0 559.37335 793.70667"
   height="793.70667"
   width="559.37335"
   xml:space="preserve"
   id="svg2"
   version="1.1"><metadata
     id="metadata8"><rdf:RDF><cc:Work
         rdf:about=""><dc:format>image/svg+xml</dc:format><dc:type
           rdf:resource="http://purl.org/dc/dcmitype/StillImage" /></cc:Work></rdf:RDF></metadata><defs
     id="defs6"><clipPath
       id="clipPath18"
       clipPathUnits="userSpaceOnUse"><path
         id="path16"
         d="M 0,595.28 H 419.53 V 0 H 0 Z" /></clipPath></defs><g
     transform="matrix(1.3333333,0,0,-1.3333333,0,793.70667)"
     id="g10"><g
       id="g12"><g
         clip-path="url(#clipPath18)"
         id="g14"><g
           transform="translate(176.8977,314.0929)"
           id="g20"><path
             id="path22"
             style="fill:#fdfefd;fill-opacity:1;fill-rule:nonzero;stroke:none"
             d="m 0,0 c -1.322,-0.693 -2.623,-1.428 -3.97,-2.067 -1.632,-0.775 -2.359,-2.057 -2.37,-3.813 -1.596,0.89 -3.182,1.312 -4.856,0.124 -1.385,-0.984 -3.084,-1.548 -4.057,-3.075 -0.391,-0.272 -0.012,-0.889 -0.5,-1.118" /></g><g
           transform="translate(161.145,304.1438)"
           id="g24"><path
             id="path26"
             style="fill:#a9cf6d;fill-opacity:1;fill-rule:nonzero;stroke:none"
             d="M 0,0 C 0.488,0.229 0.108,0.846 0.499,1.118 3.563,-0.473 6.536,-2.217 9.407,-4.136 7.619,-4.562 5.831,-5.784 4.081,-3.958 3.455,-3.305 3.135,-3.801 3.045,-4.481 2.887,-5.678 3.227,-6.837 3.319,-8.016 3.227,-8.016 3.136,-8.017 3.045,-8.018 2.79,-7.931 2.534,-7.844 2.279,-7.758 1.519,-7.106 0.76,-6.455 0,-5.804 Z" /></g><g
           transform="translate(178.0032,314.0929)"
           id="g28"><path
             id="path30"
             style="fill:#7a953d;fill-opacity:1;fill-rule:nonzero;stroke:none"
             d="M 0,0 C 1.456,-0.989 3.189,-1.466 4.614,-2.516 5.362,-3.068 6.082,-3.616 6.047,-4.677 5.478,-4.339 4.998,-3.823 4.174,-3.775 3.98,-5.008 3.787,-6.236 3.594,-7.463 3.502,-7.555 3.409,-7.646 3.317,-7.737 1.456,-8.181 0.492,-9.669 -0.555,-11.061 c -0.022,0.094 -0.043,0.189 -0.065,0.283 0.023,3.593 0.045,7.185 0.067,10.778 z" /></g><g
           transform="translate(163.4239,296.3862)"
           id="g32"><path
             id="path34"
             style="fill:#7a953d;fill-opacity:1;fill-rule:nonzero;stroke:none"
             d="m 0,0 c 0.255,-0.087 0.511,-0.174 0.766,-0.261 -0.067,-1.247 -0.961,-2.501 -0.008,-3.791 0.489,0.269 0.925,0.518 1.369,0.749 0.731,0.379 1.427,0.842 2.324,0.38 C 5.535,-3.481 6.713,-3.653 7.926,-3.58 7.751,-3.763 7.576,-3.946 7.401,-4.129 5.788,-4.656 4.35,-5.554 2.838,-6.293 1.252,-7.068 -0.383,-7.765 -1.76,-8.911 c -0.173,0.029 -0.346,0.058 -0.519,0.087 v 6.633 C -1.714,-1.258 -0.925,-0.559 0,0" /></g><g
           transform="translate(177.4504,314.0929)"
           id="g36"><path
             id="path38"
             style="fill:#a9cf6d;fill-opacity:1;fill-rule:nonzero;stroke:none"
             d="m 0,0 c -0.022,-3.593 -0.045,-7.185 -0.066,-10.778 -0.645,0.697 -1.197,1.532 -1.963,2.053 -0.797,0.542 -1.102,1.134 -1.019,2.038 0.042,0.453 -0.007,0.912 0.009,1.368 0.03,0.864 -0.362,1.008 -1.118,0.753 -0.901,-0.305 -1.477,-1.047 -2.238,-1.534 -0.194,0.009 -0.391,0.012 -0.498,0.22 0.011,1.756 0.738,3.038 2.37,3.813 1.347,0.639 2.649,1.374 3.97,2.067 z" /></g><g
           transform="translate(163.4239,296.3862)"
           id="g40"><path
             id="path42"
             style="fill:#fdfefd;fill-opacity:1;fill-rule:nonzero;stroke:none"
             d="M 0,0 C -0.925,-0.559 -1.714,-1.258 -2.279,-2.191 V 1.954 C -1.519,1.303 -0.76,0.651 0,0" /></g><g
           transform="translate(184.9271,308.2073)"
           id="g44"><path
             id="path46"
             style="fill:#a9cf6d;fill-opacity:1;fill-rule:nonzero;stroke:none"
             d="M 0,0 C 2.413,1.479 4.516,0.95 6.462,-0.933 7.345,-1.788 8.423,-2.441 9.091,-3.515 8.831,-3.598 8.567,-3.667 8.313,-3.766 5.41,-4.892 2.662,-6.389 -0.297,-7.381 c 0.549,1.21 0.435,2.749 1.703,3.596 1.221,0.816 1.278,1.219 -0.045,1.898 C 0.517,-1.455 0.151,-0.847 0,0" /></g><g
           transform="translate(193.2549,287.2791)"
           id="g48"><path
             id="path50"
             style="fill:#7a953d;fill-opacity:1;fill-rule:nonzero;stroke:none"
             d="m 0,0 c -1.636,-1.701 -3.608,-2.872 -5.835,-3.604 -1.189,-0.391 -2.07,0.48 -3.063,0.874 0.005,0.263 0.011,0.525 0.016,0.788 0.8,-0.019 1.523,0.208 2.192,0.65 1.125,0.743 1.117,0.959 -0.075,1.615 -0.741,0.408 -1.697,0.63 -1.736,1.722 C -8.547,3.306 -9.072,4.425 -9.47,5.583 -9.284,5.557 -9.098,5.531 -8.913,5.505 -6.038,3.514 -3.011,1.77 0,0" /></g><g
           transform="translate(161.6636,287.4754)"
           id="g52"><path
             id="path54"
             style="fill:#a9cf6d;fill-opacity:1;fill-rule:nonzero;stroke:none"
             d="M 0,0 C 1.377,1.146 3.012,1.843 4.598,2.617 6.11,3.357 7.549,4.255 9.162,4.782 8.638,2.942 8.733,0.727 6.221,0.117 5.566,-0.042 5.677,-0.404 6.072,-0.864 6.898,-1.823 8.086,-1.982 9.162,-2.396 9.158,-2.485 9.156,-2.575 9.154,-2.665 9.071,-2.758 8.989,-2.851 8.906,-2.944 6.148,-4.593 3.894,-3.515 1.777,-1.64 1.173,-1.105 0.436,-0.717 0,0" /></g><g
           transform="translate(184.3728,285.3374)"
           id="g56"><path
             id="path58"
             style="fill:#a9cf6d;fill-opacity:1;fill-rule:nonzero;stroke:none"
             d="m 0,0 c -0.005,-0.263 -0.011,-0.526 -0.016,-0.788 -0.037,-0.083 -0.111,-0.169 -0.105,-0.249 0.251,-3.196 -2.062,-4.265 -4.409,-5.268 -0.779,-0.333 -1.515,-0.846 -2.424,-0.807 0.026,3.571 0.051,7.142 0.077,10.713 0.47,-0.617 0.817,-1.44 1.436,-1.81 1.264,-0.757 1.793,-1.693 1.573,-3.146 -0.127,-0.832 0.337,-0.859 1.025,-0.639 1.117,0.357 1.816,1.188 2.549,2.003 z" /></g><g
           transform="translate(193.2549,287.2791)"
           id="g60"><path
             id="path62"
             style="fill:#a9cf6d;fill-opacity:1;fill-rule:nonzero;stroke:none"
             d="m 0,0 c -3.011,1.77 -6.038,3.514 -8.913,5.506 1.634,0.366 3.254,1.351 4.834,-0.277 0.947,-0.977 1.113,-0.069 1.268,0.704 0.233,1.16 -0.463,2.312 -0.009,3.467 0.086,0.002 0.172,0.004 0.258,0.005 C -2.263,9.032 -1.843,9.14 -1.454,9.125 -1.447,9.035 -1.474,8.89 -1.43,8.864 1.093,7.374 0.579,4.939 0.469,2.659 0.426,1.765 0.347,0.852 0,0" /></g><g
           transform="translate(177.496,288.9384)"
           id="g64"><path
             id="path66"
             style="fill:#7a953d;fill-opacity:1;fill-rule:nonzero;stroke:none"
             d="m 0,0 c -0.026,-3.571 -0.051,-7.142 -0.077,-10.713 -2.466,0.441 -4.562,1.629 -6.28,3.393 -0.726,0.745 -0.542,1.904 -0.569,2.913 0.082,0.093 0.165,0.186 0.247,0.279 0.575,-0.518 1.108,-1.097 1.739,-1.534 0.46,-0.318 1.011,-0.849 1.596,-0.531 0.487,0.265 0.202,0.924 0.228,1.404 0.031,0.591 -0.027,1.187 -0.046,1.781 0.024,0.084 0.049,0.168 0.074,0.253 1.259,0.695 2.36,1.536 2.771,3.012 C -0.211,0.171 -0.106,0.086 0,0" /></g><g
           transform="translate(191.8014,296.4042)"
           id="g68"><path
             id="path70"
             style="fill:#7a953d;fill-opacity:1;fill-rule:nonzero;stroke:none"
             d="m 0,0 c -0.389,0.015 -0.809,-0.093 -1.108,0.28 0.151,0.667 0.285,1.34 0.458,2.001 0.141,0.539 0.005,1.074 -0.318,1.413 C -1.373,4.121 -1.808,3.617 -2.188,3.43 -2.762,3.147 -3.299,2.79 -3.852,2.465 -3.943,2.473 -4.035,2.477 -4.127,2.476 -5.121,3.5 -6.506,3.499 -7.752,3.863 c 0.193,0.187 0.387,0.373 0.58,0.56 2.96,0.992 5.707,2.488 8.611,3.614 C 1.692,8.136 1.957,8.205 2.217,8.288 2.292,6.413 2.348,4.545 2.056,2.672 1.852,1.364 1.223,0.477 0,0" /></g><g
           transform="translate(184.6296,300.8268)"
           id="g72"><path
             id="path74"
             style="fill:#cacc7a;fill-opacity:1;fill-rule:nonzero;stroke:none"
             d="m 0,0 c -0.193,-0.186 -0.387,-0.373 -0.58,-0.559 -0.88,-0.78 -2.01,-1.107 -3.014,-1.664 -1.006,0.77 0.07,1.748 -0.258,2.585 0.25,1.715 0.646,3.415 0.542,5.167 0.093,0.091 0.185,0.183 0.278,0.274 1.144,0.342 2.397,0.546 2.595,2.073 C -0.192,7.711 0.053,7.546 0.297,7.381 0.448,6.533 0.815,5.926 1.659,5.493 2.982,4.815 2.925,4.412 1.703,3.596 0.436,2.749 0.549,1.209 0,0" /></g><g
           transform="translate(184.1927,308.7027)"
           id="g76"><path
             id="path78"
             style="fill:#b9b868;fill-opacity:1;fill-rule:nonzero;stroke:none"
             d="m 0,0 c -0.198,-1.527 -1.451,-1.731 -2.595,-2.073 0.193,1.228 0.386,2.455 0.579,3.689 C -1.192,1.567 -0.711,1.051 -0.142,0.714 -0.095,0.476 -0.047,0.238 0,0" /></g><g
           transform="translate(170.5579,308.2132)"
           id="g80"><path
             id="path82"
             style="fill:#7a953d;fill-opacity:1;fill-rule:nonzero;stroke:none"
             d="m 0,0 c 0.106,-0.208 0.303,-0.211 0.498,-0.22 0.106,-0.498 -0.085,-0.867 -0.493,-1.143 -0.57,-0.155 -1.144,-0.299 -1.71,-0.466 -0.595,-0.176 -1.196,-0.503 -1.248,-1.126 -0.05,-0.592 0.686,-0.631 1.089,-0.892 0.422,-0.273 0.867,-0.509 1.302,-0.762 0.094,-0.186 0.188,-0.373 0.282,-0.559 -0.169,-1.144 0.618,-2.031 0.823,-3.074 -0.183,0.012 -0.366,0.024 -0.549,0.037 -2.87,1.919 -5.844,3.662 -8.908,5.254 0.974,1.527 2.672,2.091 4.058,3.075 C -3.182,1.312 -1.596,0.89 0,0" /></g><g
           transform="translate(170.5518,300.008)"
           id="g84"><path
             id="path86"
             style="fill:#cacc7a;fill-opacity:1;fill-rule:nonzero;stroke:none"
             d="m 0,0 c 0.183,-0.012 0.366,-0.025 0.549,-0.037 0,0 0.002,0.003 0.002,0.003 0.087,-0.083 0.175,-0.167 0.262,-0.251 1.215,0.062 1.925,-0.961 2.925,-1.362 0.11,-0.737 -0.585,-0.702 -0.949,-0.969 -0.574,-0.421 -1.39,-0.51 -1.717,-1.268 -0.64,0.069 -1.211,-0.22 -1.645,-0.58 -2.067,-1.717 -3.888,-1.609 -5.515,0.584 -0.091,1.178 -0.431,2.338 -0.273,3.535 0.089,0.68 0.409,1.176 1.035,0.523 C -3.575,-1.648 -1.788,-0.426 0,0" /></g><g
           transform="translate(164.4637,296.1281)"
           id="g88"><path
             id="path90"
             style="fill:#b9b868;fill-opacity:1;fill-rule:nonzero;stroke:none"
             d="m 0,0 c 1.627,-2.193 3.448,-2.301 5.515,-0.584 0.434,0.36 1.005,0.649 1.645,0.58 0.911,-0.62 1.95,-1.063 2.685,-1.927 -1.239,0.076 -2.051,-0.76 -2.958,-1.39 -1.214,-0.074 -2.392,0.098 -3.475,0.656 -0.898,0.463 -1.594,-10e-4 -2.324,-0.38 -0.445,-0.231 -0.88,-0.48 -1.37,-0.749 -0.953,1.29 -0.058,2.544 0.008,3.791 C -0.182,-0.001 -0.091,0 0,0" /></g><g
           transform="translate(170.278,303.0449)"
           id="g92"><path
             id="path94"
             style="fill:#cacc7a;fill-opacity:1;fill-rule:nonzero;stroke:none"
             d="M 0,0 C -0.094,0.187 -0.188,0.373 -0.282,0.56 -0.406,1.696 0.163,2.711 0.285,3.805 0.693,4.081 0.884,4.45 0.778,4.948 1.538,5.435 2.115,6.177 3.015,6.482 3.771,6.737 4.164,6.593 4.133,5.729 4.117,5.273 4.166,4.814 4.125,4.361 4.041,3.457 4.347,2.865 5.144,2.323 5.909,1.802 6.461,0.967 7.106,0.27 7.127,0.176 7.148,0.081 7.17,-0.013 7.58,-1.117 7.415,-2.271 7.458,-3.406 6.949,-3.822 6.63,-3.296 6.248,-3.144 5.491,-2.842 4.888,-2.22 4.052,-2.075 2.751,-1.286 1.583,-0.238 0,0" /></g><g
           transform="translate(177.7363,299.6387)"
           id="g96"><path
             id="path98"
             style="fill:#b9b868;fill-opacity:1;fill-rule:nonzero;stroke:none"
             d="M 0,0 C -0.043,1.135 0.122,2.289 -0.288,3.393 0.759,4.785 1.722,6.273 3.584,6.717 3.687,4.965 3.291,3.265 3.041,1.55 2.028,1.033 1.014,0.516 0,0" /></g><g
           transform="translate(171.3503,292.8067)"
           id="g100"><path
             id="path102"
             style="fill:#cacc7a;fill-opacity:1;fill-rule:nonzero;stroke:none"
             d="m 0,0 c 0.908,0.631 1.719,1.466 2.958,1.39 0.032,-1.02 0.066,-2.04 0.1,-3.061 0,-1.651 0,-3.302 0,-4.953 C 3.032,-6.708 3.007,-6.792 2.984,-6.877 1.815,-7.16 0.645,-7.444 -0.525,-7.727 c -1.076,0.414 -2.264,0.573 -3.09,1.532 -0.395,0.459 -0.506,0.822 0.15,0.981 2.512,0.61 2.416,2.825 2.94,4.665 C -0.35,-0.366 -0.175,-0.183 0,0" /></g><g
           transform="translate(187.6746,298.8806)"
           id="g104"><path
             id="path106"
             style="fill:#cacc7a;fill-opacity:1;fill-rule:nonzero;stroke:none"
             d="M 0,0 C 0.092,0 0.184,-0.003 0.275,-0.011 0.922,-0.947 1.814,-1.606 2.761,-2.201 2.306,-3.357 3.003,-4.508 2.77,-5.668 2.614,-6.441 2.449,-7.35 1.501,-6.373 c -1.579,1.628 -3.2,0.643 -4.833,0.277 -0.186,0.026 -0.372,0.052 -0.558,0.077 -1.171,0.223 -2.174,0.764 -3.016,1.608 -0.03,0.608 0.526,0.633 0.868,0.87 0.645,0.446 1.481,0.62 1.926,1.352 C -2.539,-1.839 -1.256,-0.945 0,0" /></g><g
           transform="translate(180.769,294.4693)"
           id="g108"><path
             id="path110"
             style="fill:#b9b868;fill-opacity:1;fill-rule:nonzero;stroke:none"
             d="M 0,0 C 0.841,-0.844 1.844,-1.385 3.016,-1.607 3.414,-2.766 3.939,-3.885 3.985,-5.145 4.024,-6.237 4.98,-6.459 5.72,-6.867 6.913,-7.523 6.921,-7.739 5.796,-8.482 5.126,-8.924 4.404,-9.151 3.604,-9.132 3.506,-9.129 3.408,-9.126 3.31,-9.123 c 0.1,0.351 0.177,0.711 0.305,1.051 0.498,1.318 0.403,2.292 -1.079,3.023 -0.937,0.463 -2.115,0.753 -2.64,1.865 C -0.069,-2.123 -0.035,-1.062 0,0" /></g><g
           transform="translate(170.8253,285.0798)"
           id="g112"><path
             id="path114"
             style="fill:#b9b868;fill-opacity:1;fill-rule:nonzero;stroke:none"
             d="M 0,0 C 1.17,0.283 2.34,0.566 3.509,0.85 3.528,0.256 3.586,-0.339 3.554,-0.93 3.528,-1.411 3.814,-2.07 3.326,-2.335 2.742,-2.653 2.19,-2.121 1.73,-1.803 1.099,-1.367 0.567,-0.788 -0.008,-0.27 -0.006,-0.18 -0.003,-0.09 0,0" /></g><g
           transform="translate(180.6641,291.2856)"
           id="g116"><path
             id="path118"
             style="fill:#cacc7a;fill-opacity:1;fill-rule:nonzero;stroke:none"
             d="M 0,0 C 0.526,-1.112 1.704,-1.402 2.641,-1.865 4.123,-2.597 4.218,-3.57 3.72,-4.888 3.592,-5.229 3.515,-5.589 3.415,-5.94 2.682,-6.754 1.983,-7.585 0.866,-7.943 c -0.688,-0.22 -1.152,-0.193 -1.026,0.64 0.221,1.453 -0.309,2.389 -1.573,3.146 -0.618,0.37 -0.966,1.192 -1.436,1.81 -0.105,0.085 -0.21,0.171 -0.316,0.257 -0.155,1.028 0.329,2.123 -0.329,3.098 C -3.197,1.622 -2.689,1.1 -2.126,0.876 -1.414,0.593 -0.942,-0.282 0,0" /></g><g
           transform="translate(190.4354,296.6793)"
           id="g120"><path
             id="path122"
             style="fill:#b9b868;fill-opacity:1;fill-rule:nonzero;stroke:none"
             d="m 0,0 c -0.947,0.596 -1.839,1.254 -2.486,2.19 0.553,0.325 1.09,0.682 1.664,0.965 0.38,0.186 0.815,0.691 1.22,0.264 C 0.721,3.08 0.857,2.544 0.716,2.006 0.543,1.345 0.409,0.672 0.258,0.005 0.172,0.003 0.086,0.002 0,0" /></g><g
           transform="translate(176.8503,292.2936)"
           id="g124"><path
             id="path126"
             style="fill:#b9b868;fill-opacity:1;fill-rule:nonzero;stroke:none"
             d="m 0,0 c 0.657,-0.975 0.174,-2.07 0.329,-3.098 -0.411,-1.476 -1.513,-2.317 -2.771,-3.013 0,1.651 0,3.302 0,4.953 C -1.628,-0.772 -0.814,-0.386 0,0" /></g><g
           transform="translate(187.6746,298.8806)"
           id="g128"><path
             id="path130"
             style="fill:#b9b868;fill-opacity:1;fill-rule:nonzero;stroke:none"
             d="m 0,0 c -1.256,-0.945 -2.539,-1.839 -4.112,-2.19 -0.842,0.638 -1.685,1.276 -2.527,1.914 1.004,0.556 2.134,0.883 3.014,1.663 C -2.379,1.023 -0.994,1.023 0,0" /></g><g
           transform="translate(181.0355,298.6041)"
           id="g132"><path
             id="path134"
             style="fill:#fdfefd;fill-opacity:1;fill-rule:nonzero;stroke:none"
             d="M 0,0 C 0.842,-0.638 1.685,-1.275 2.527,-1.913 2.082,-2.645 1.246,-2.818 0.601,-3.265 c -0.342,-0.237 -0.898,-0.262 -0.867,-0.87 -0.035,-1.062 -0.07,-2.123 -0.105,-3.184 -0.943,-0.282 -1.414,0.593 -2.127,0.877 -0.562,0.224 -1.07,0.746 -1.687,0.131 -0.814,-0.385 -1.629,-0.771 -2.443,-1.157 -0.033,1.02 -0.067,2.041 -0.099,3.061 -0.735,0.864 -1.773,1.307 -2.684,1.927 0.326,0.758 1.143,0.847 1.716,1.268 0.364,0.266 1.06,0.232 0.949,0.969 0.014,0.869 0.027,1.739 0.04,2.609 0.836,-0.145 1.44,-0.768 2.196,-1.069 0.383,-0.152 0.701,-0.678 1.211,-0.262 1.014,0.516 2.027,1.032 3.041,1.549 C 0.07,1.747 -1.006,0.77 0,0" /></g><g
           transform="translate(174.33,300.9702)"
           id="g136"><path
             id="path138"
             style="fill:#b9b868;fill-opacity:1;fill-rule:nonzero;stroke:none"
             d="m 0,0 c -0.013,-0.87 -0.027,-1.74 -0.04,-2.609 -1,0.4 -1.71,1.424 -2.925,1.362 -0.088,0.084 -0.175,0.167 -0.262,0.251 0,0 -0.002,-0.003 -0.002,-0.003 -0.205,1.043 -0.992,1.93 -0.823,3.074 C -2.469,1.837 -1.301,0.788 0,0" /></g><g
           transform="translate(170.5628,306.8499)"
           id="g140"><path
             id="path142"
             style="fill:#b9b868;fill-opacity:1;fill-rule:nonzero;stroke:none"
             d="m 0,0 c -0.121,-1.094 -0.691,-2.109 -0.567,-3.245 -0.435,0.252 -0.88,0.489 -1.302,0.762 -0.403,0.26 -1.139,0.299 -1.089,0.891 0.052,0.623 0.653,0.95 1.248,1.126 C -1.143,-0.298 -0.57,-0.154 0,0" /></g><g
           transform="translate(171.1027,299.9741)"
           id="g144"><path
             id="path146"
             style="fill:#a9cf6d;fill-opacity:1;fill-rule:nonzero;stroke:none"
             d="M 0,0 C 0.087,-0.084 0.175,-0.167 0.262,-0.251 0.175,-0.167 0.087,-0.084 0,0" /></g><g
           transform="translate(208.7417,295.7666)"
           id="g148"><path
             id="path150"
             style="fill:#918e8a;fill-opacity:1;fill-rule:nonzero;stroke:none"
             d="m 0,0 c -1.591,-0.655 -3.214,-0.78 -4.836,-0.904 -2.84,-0.219 -4.556,-1.249 -4.556,-3.433 0,-1.966 1.716,-2.902 3.495,-2.902 2.964,0 5.897,1.435 5.897,4.712 z m -3.151,0.937 c 0.686,0.062 1.84,0.249 2.465,0.53 C -0.062,1.748 0,2.59 0,3.152 c 0,1.904 -1.123,3.277 -4.025,3.277 -2.59,0 -4.369,-0.843 -4.712,-3.652 h -1.904 c 0.282,3.807 3.121,5.336 6.647,5.336 3.277,0 5.867,-1.279 5.867,-5.023 v -8.8 c 0,-1.467 0.374,-1.81 1.965,-1.248 V -8.425 C 3.557,-8.519 2.902,-8.737 2.372,-8.737 c -0.312,0 -0.562,0.031 -0.843,0.093 -1.248,0.188 -1.467,1.28 -1.498,2.404 -1.56,-1.748 -3.682,-2.684 -6.022,-2.684 -2.84,0 -5.398,1.528 -5.398,4.65 0,2.714 1.872,4.368 5.648,4.867 z" /></g><g
           transform="translate(213.3623,292.334)"
           id="g152"><path
             id="path154"
             style="fill:#918e8a;fill-opacity:1;fill-rule:nonzero;stroke:none"
             d="m 0,0 c 0.593,-2.776 2.028,-3.807 4.837,-3.807 2.715,0 3.994,1.436 3.994,2.996 0,4.681 -10.36,1.373 -10.36,7.739 0,2.683 2.091,4.618 5.679,4.618 3.495,0 5.773,-1.436 6.241,-5.086 H 8.487 C 8.145,8.956 6.459,9.861 4.119,9.861 1.747,9.861 0.468,8.737 0.468,7.084 c 0,-4.4 10.36,-1.654 10.36,-7.863 0,-3.09 -2.777,-4.712 -6.584,-4.712 -3.807,0 -5.991,2.433 -6.147,5.491 z" /></g><g
           transform="translate(232.1797,288.5273)"
           id="g156"><path
             id="path158"
             style="fill:#918e8a;fill-opacity:1;fill-rule:nonzero;stroke:none"
             d="M 0,0 C 3.869,0 5.68,3.276 5.523,7.333 5.492,11.39 3.152,13.668 0,13.668 -3.525,13.668 -5.461,10.672 -5.461,6.771 -5.461,3.12 -3.401,0 0,0 m -5.461,-7.613 h -1.872 v 22.529 h 1.872 v -2.84 h 0.063 c 1.092,2.122 3.557,3.277 5.617,3.277 5.211,0 7.302,-3.713 7.302,-8.488 0,-4.524 -2.279,-8.55 -7.209,-8.55 -2.278,0 -4.586,1.061 -5.773,3.027 z" /></g><g
           transform="translate(252.1533,296.4844)"
           id="g160"><path
             id="path162"
             style="fill:#918e8a;fill-opacity:1;fill-rule:nonzero;stroke:none"
             d="m 0,0 c 0,3.151 -1.747,5.711 -5.117,5.711 -3.308,0 -5.056,-2.652 -5.43,-5.711 z m -10.547,-1.56 c -0.031,-3.495 1.841,-6.397 5.43,-6.397 2.433,0 4.337,1.342 4.898,3.714 h 2.091 c -0.935,-3.059 -2.87,-5.399 -6.989,-5.399 -5.18,0 -7.427,3.682 -7.427,8.456 0,4.712 2.809,8.582 7.427,8.582 4.43,0 7.145,-3.152 7.114,-8.956 z" /></g><g
           transform="translate(266.0098,298.3564)"
           id="g164"><path
             id="path166"
             style="fill:#918e8a;fill-opacity:1;fill-rule:nonzero;stroke:none"
             d="m 0,0 c -0.655,2.403 -2.309,3.839 -4.805,3.839 -3.839,0 -5.429,-3.495 -5.429,-6.865 0,-3.402 1.559,-6.803 5.429,-6.803 2.777,0 4.525,1.654 4.961,4.338 h 1.997 c -0.655,-3.589 -2.901,-6.023 -6.958,-6.023 -5.149,0 -7.426,3.713 -7.426,8.488 0,4.493 2.589,8.549 7.426,8.549 3.713,0 6.147,-1.778 6.709,-5.523 z" /></g><g
           transform="translate(274.3437,287.2168)"
           id="g168"><path
             id="path170"
             style="fill:#918e8a;fill-opacity:1;fill-rule:nonzero;stroke:none"
             d="m 0,0 c -0.437,-0.094 -1.248,-0.374 -2.153,-0.374 -1.841,0 -2.87,0.811 -2.87,3.214 v 11.826 h -2.279 v 1.561 h 2.279 v 4.493 h 1.872 v -4.493 h 3.026 V 14.666 H -3.151 V 3.589 c 0,-1.592 0.062,-2.278 1.622,-2.278 0.5,0 1.03,0.093 1.529,0.218 z" /></g></g></g></g></svg>